<svg width="112" height="28" viewBox="0 0 112 28" fill="none" xmlns="http://www.w3.org/2000/svg">
<g id="skilled">
<path id="Path" d="M8.892 27.6839C6.732 27.6839 4.854 27.1739 3.258 26.1539C1.662 25.1339 0.576 23.7599 0 22.0319L3.96 20.1599C4.464 21.2159 5.148 22.0439 6.012 22.6439C6.876 23.2439 7.836 23.5439 8.892 23.5439C9.66 23.5439 10.248 23.3879 10.656 23.0759C11.064 22.7639 11.268 22.3319 11.268 21.7799C11.268 21.4919 11.196 21.2459 11.052 21.0419C10.908 20.8379 10.692 20.6519 10.404 20.4839C10.116 20.3159 9.756 20.1719 9.324 20.0519L5.976 19.1159C4.368 18.6599 3.132 17.9219 2.268 16.9019C1.404 15.8819 0.972 14.6759 0.972 13.2839C0.972 12.0599 1.284 10.9919 1.908 10.0799C2.532 9.16794 3.408 8.45394 4.536 7.93794C5.664 7.42194 6.96 7.16394 8.424 7.16394C10.344 7.16394 12.03 7.61394 13.482 8.51394C14.934 9.41394 15.96 10.6799 16.56 12.3119L12.564 14.1839C12.276 13.3679 11.754 12.7139 10.998 12.2219C10.242 11.7299 9.384 11.4839 8.424 11.4839C7.728 11.4839 7.182 11.6279 6.786 11.9159C6.39 12.2039 6.192 12.5999 6.192 13.1039C6.192 13.3679 6.264 13.6079 6.408 13.8239C6.552 14.0399 6.786 14.2319 7.11 14.3999C7.434 14.5679 7.836 14.7239 8.316 14.8679L11.448 15.8039C13.08 16.2839 14.328 17.0099 15.192 17.9819C16.056 18.9539 16.488 20.1479 16.488 21.5639C16.488 22.7879 16.17 23.8559 15.534 24.7679C14.898 25.6799 14.016 26.3939 12.888 26.9099C11.76 27.4259 10.428 27.6839 8.892 27.6839Z" fill="#13183F"/>
<path id="Path_2" d="M19.728 27.252V0H25.128V17.46L23.112 16.812L31.788 7.596H38.448L31.32 15.516L38.412 27.252H32.292L26.352 17.28L29.484 16.488L23.472 23.04L25.128 19.908V27.252H19.728Z" fill="#13183F"/>
<path id="Shape" fill-rule="evenodd" clip-rule="evenodd" d="M40.824 0.432007V5.83201H46.224V0.432007H40.824ZM40.824 7.59601V27.252H46.224V7.59601H40.824Z" fill="#13183F"/>
<path id="Path_3" d="M50.184 27.252V0H55.584V27.252H50.184Z" fill="#13183F"/>
<path id="Path_4" d="M59.544 27.252V0H64.944V27.252H59.544Z" fill="#13183F"/>
<path id="Path_5" d="M78.372 27.6839C76.284 27.6839 74.472 27.2219 72.936 26.2979C71.4 25.3739 70.212 24.1319 69.372 22.5719C68.532 21.0119 68.112 19.2839 68.112 17.3879C68.112 15.4199 68.55 13.6679 69.426 12.1319C70.302 10.5959 71.484 9.38394 72.972 8.49594C74.46 7.60794 76.14 7.16394 78.012 7.16394C79.572 7.16394 80.952 7.40994 82.152 7.90194C83.352 8.39394 84.366 9.08394 85.194 9.97194C86.022 10.8599 86.652 11.8859 87.084 13.0499C87.516 14.2139 87.732 15.4799 87.732 16.8479C87.732 17.2319 87.714 17.6099 87.678 17.9819C87.642 18.3539 87.576 18.6719 87.48 18.9359H72.756V14.9759H84.42L81.864 16.8479C82.104 15.8159 82.092 14.8979 81.828 14.0939C81.564 13.2899 81.102 12.6539 80.442 12.1859C79.782 11.7179 78.972 11.4839 78.012 11.4839C77.076 11.4839 76.272 11.7119 75.6 12.1679C74.928 12.6239 74.424 13.2959 74.088 14.1839C73.752 15.0719 73.62 16.1519 73.692 17.4239C73.596 18.5279 73.728 19.4999 74.088 20.3399C74.448 21.1799 75 21.8339 75.744 22.3019C76.488 22.7699 77.388 23.0039 78.444 23.0039C79.404 23.0039 80.226 22.8119 80.91 22.4279C81.594 22.0439 82.128 21.5159 82.512 20.8439L86.832 22.8959C86.448 23.8559 85.842 24.6959 85.014 25.4159C84.186 26.1359 83.208 26.6939 82.08 27.0899C80.952 27.4859 79.716 27.6839 78.372 27.6839Z" fill="#13183F"/>
<path id="Shape_2" fill-rule="evenodd" clip-rule="evenodd" d="M95.004 26.316C96.516 27.228 98.232 27.684 100.152 27.684C101.496 27.684 102.744 27.438 103.896 26.946C104.782 26.5676 105.526 26.0509 106.128 25.3957V27.252H111.168V0H105.768V9.24638C105.253 8.73556 104.647 8.31144 103.95 7.974C102.834 7.434 101.556 7.164 100.116 7.164C98.244 7.164 96.552 7.62 95.04 8.532C93.528 9.444 92.328 10.674 91.44 12.222C90.552 13.77 90.108 15.504 90.108 17.424C90.108 19.32 90.546 21.048 91.422 22.608C92.298 24.168 93.492 25.404 95.004 26.316ZM103.392 22.14C102.648 22.596 101.784 22.824 100.8 22.824C99.816 22.824 98.934 22.596 98.154 22.14C97.374 21.684 96.768 21.048 96.336 20.232C95.904 19.416 95.688 18.48 95.688 17.424C95.688 16.368 95.904 15.438 96.336 14.634C96.768 13.83 97.374 13.194 98.154 12.726C98.934 12.258 99.816 12.024 100.8 12.024C101.784 12.024 102.648 12.252 103.392 12.708C104.136 13.164 104.718 13.8 105.138 14.616C105.558 15.432 105.768 16.368 105.768 17.424C105.768 18.48 105.558 19.416 105.138 20.232C104.718 21.048 104.136 21.684 103.392 22.14Z" fill="#13183F"/>
</g>
</svg>
